<?xml version="1.0" encoding="utf-8"?>
<!-- Svg Vector Icons : http://www.onlinewebfonts.com/icon -->
<!DOCTYPE svg PUBLIC "-//W3C//DTD SVG 1.1//EN" "http://www.w3.org/Graphics/SVG/1.1/DTD/svg11.dtd">
<svg version="1.1" xmlns="http://www.w3.org/2000/svg" xmlns:xlink="http://www.w3.org/1999/xlink" x="0px" y="0px" viewBox="0 0 1000 1000" enable-background="new 0 0 1000 1000" xml:space="preserve">
<metadata> Svg Vector Icons : http://www.onlinewebfonts.com/icon </metadata>
<g><g transform="translate(0.000000,512.000000) scale(0.100000,-0.100000)"><path style="fill: #009688" d="M2013.1,5092.1c-333.8-42.9-751.6-216.7-1032.7-427.5C511.9,4311.2,193.7,3758.8,119.5,3177C107.8,3073.5,100,2015.4,100,194.1c0-3092.3-2-3024,117.1-3377.3c72.2-216.7,130.8-333.8,267.5-540.8c247.9-378.7,654-693,1083.5-843.4c380.7-132.8,257.7-124.9,2373.9-132.8c1054.2-3.9,1917.1-1.9,1917.1,5.9c0,5.9-66.4,82-146.4,167.9c-328,349.4-568.1,821.9-667.6,1319.7c-46.9,236.2-46.9,767.2,0,1005.4c115.2,575.9,413.9,1112.7,827.7,1497.3c249.9,230.4,593.5,443.1,901.9,560.3C6921-89,7262.6-3.1,7362.2,2.7c37.1,3.9-497.8,9.8-1186.9,15.6L4918,28.1l-46.9,54.7c-70.3,82-64.4,191.3,13.7,255.7l60.5,50.8h1676.9c1837,0,1762.8,3.9,1811.6-113.2c29.3-72.2,11.7-144.5-48.8-201.1c-39-37.1-78.1-46.9-208.9-58.6c-87.9-5.9-128.9-13.7-89.8-13.7c115.2-5.9,501.7-111.3,675.5-185.5c408-173.8,775-445.1,1056.1-784.8l82-97.6V984.7c0,1708.2-5.8,2081-29.3,2241.1c-146.4,978.1-931.2,1745.3-1907.3,1868.2C7766.3,5117.5,2202.5,5117.5,2013.1,5092.1z M3824.8,3795.8c72.2-60.5,91.8-132.7,56.6-203c-37.1-72.2-1294.3-1536.4-1333.3-1552c-95.7-37.1-142.5-11.7-577.9,312.4c-240.1,177.7-450.9,341.6-470.5,363.1c-19.5,23.4-33.2,70.3-33.2,117.1c0,103.5,68.3,171.8,171.8,171.8c66.4,0,117.1-31.2,443.1-275.3c302.6-228.4,370.9-271.4,388.5-247.9c124.9,165.9,1151.8,1343.1,1177.2,1349C3725.2,3850.5,3770.1,3842.7,3824.8,3795.8z M8391,2880.3c43-37.1,54.7-62.5,54.7-128.8c0-66.4-11.7-91.8-54.7-128.8l-54.7-46.9H6628.1H4920l-46.9,48.8c-37.1,35.1-48.8,68.3-48.8,126.9c0,58.6,11.7,91.8,48.8,126.9l46.9,48.8h1708.2h1708.2L8391,2880.3z M3836.5,1250.2c48.8-43,72.2-111.3,58.6-171.8C3883.3,1031.5,2657.4-417,2571.5-487.3c-19.5-15.6-64.4-29.3-99.6-29.3c-52.7,0-144.5,60.5-515.4,337.7C1706.7,8.6,1495.8,176.5,1486.1,196c-11.7,19.5-19.5,64.4-19.5,101.5c0,52.7,13.7,80,60.5,119.1c105.4,89.8,138.6,76.1,529-214.7c195.2-146.4,367-267.5,380.7-269.4c13.7-2,281.1,296.7,591.5,661.8c318.2,370.9,591.5,673.5,620.8,687.2C3709.6,1306.8,3783.8,1295.1,3836.5,1250.2z M3797.5-1447.7c62.5-29.3,115.2-136.7,97.6-201.1c-11.7-44.9-1173.3-1423.2-1298.2-1538.3c-111.3-105.4-142.5-91.8-626.7,269.4c-240.1,177.7-450.9,341.6-468.5,363.1c-21.5,23.4-35.1,70.3-35.1,117.1c0,103.5,68.3,171.8,171.8,171.8c66.4,0,117.1-31.2,441.2-275.3c203-150.3,372.9-267.4,382.6-257.7c7.8,7.8,269.4,316.3,581.7,683.3c314.3,367,579.8,671.6,593.5,675.4C3682.3-1422.4,3746.7-1426.3,3797.5-1447.7z"/><path d="M7329-555.6C7051.7-608.3,6755-731.3,6509-893.3c-162-105.4-454.9-394.3-568.1-558.3c-511.5-743.8-525.1-1690.6-33.2-2448.1c302.6-464.6,825.8-819.9,1376.3-935.1c205-44.9,634.5-48.8,829.7-9.8c695,138.6,1245.5,558.3,1552,1183c64.4,128.8,134.7,304.6,156.2,390.4c205,786.7-25.4,1596.9-609.1,2149.4c-265.5,251.8-577.8,427.5-933.1,527.1c-156.2,42.9-236.2,50.7-497.8,58.6C7571-532.2,7424.6-538,7329-555.6z M8158.6-938.2c661.8-162,1204.5-724.3,1339.2-1390c60.5-294.8,35.1-691.1-62.5-972.2c-212.8-611-759.4-1075.7-1397.8-1188.9c-165.9-31.2-513.4-25.4-669.6,7.8c-413.9,87.9-778.9,304.6-1040.5,620.8c-152.3,183.5-318.2,513.4-372.9,745.7c-52.7,218.7-56.6,575.9-9.8,784.8c74.2,335.8,238.2,640.3,478.3,890.2c285,298.7,642.3,478.3,1085.4,548.6C7631.6-871.8,8000.5-899.2,8158.6-938.2z"/><path d="M7637.4-1453.6c-93.7-52.7-97.6-78.1-99.6-708.7v-591.5l56.6-62.5l56.6-64.4l554.4-5.8c302.6-3.9,581.8,0,618.9,5.8c95.6,17.6,158.1,89.8,158.1,179.6c0,41-11.7,87.9-25.4,105.4c-52.7,70.3-101.5,76.1-577.9,76.1h-470.5v456.8c0,495.8-9.8,562.2-99.6,607.1C7742.8-1420.4,7697.9-1420.4,7637.4-1453.6z"/></g></g>
</svg>